<svg xmlns="http://www.w3.org/2000/svg" width="32" height="32" viewBox="0 0 32 32">
    <g fill="none" fill-rule="nonzero">
        <path fill="#818181" d="M16 32C7.163 32 0 24.837 0 16S7.163 0 16 0s16 7.163 16 16a16 16 0 0 1-16 16zm0-30.4C8.047 1.6 1.6 8.047 1.6 16S8.047 30.4 16 30.4 30.4 23.953 30.4 16C30.383 8.056 23.944 1.621 16 1.61V1.6z"/>
        <path fill="#818181" d="M29 16c0 7.18-5.82 13-13 13S3 23.18 3 16 8.82 3 16 3a13 13 0 0 1 13 13z"/>
        <path fill="#EAEAEA" d="M13.9 24.59h3.35v-8.38h2.33l.25-2.81h-2.58v-1.6c0-.66.13-.92.77-.92h1.81V8h-2.32C15 8 13.9 9.06 13.9 11.16v2.24h-1.74v2.84h1.74v8.35z"/>
    </g>
</svg>
