<svg xmlns="http://www.w3.org/2000/svg" width="30" height="24" viewBox="0 0 30 24">
    <g fill="none" fill-rule="evenodd">
        <path fill="#D9E021" d="M23.758 14.884l-3.492-3.645a.76.76 0 0 0-.55-.239.753.753 0 0 0-.568.262.907.907 0 0 0 .018 1.21l2.08 2.168h-4.46c-.412 0-.758.352-.786.799l.002.066c.004.465.358.845.788.847h4.463l-2.087 2.178a.886.886 0 0 0-.241.6.89.89 0 0 0 .223.609.76.76 0 0 0 .567.261.76.76 0 0 0 .55-.24l3.493-3.645A.886.886 0 0 0 24 15.5a.891.891 0 0 0-.242-.616"/>
        <path fill="#4A4A4A" d="M22.04 22.298H9.218c-2.279 0-4.125-.724-5.49-2.15-1.589-1.658-2.08-3.794-2.019-5.12.134-2.8 2.09-7.212 6.772-7.212l.092.001c4.979.06 6.739 3.087 7.365 5.228.224-.4.982-.355.982-.355h.67c-.753-2.639-2.896-6.5-8.996-6.575l-.118-.001c.108-.358.203-.567.224-.622.014-.037 1.31-3.729 5.942-3.789l.123-.001c5.84 0 7.416 5.557 7.48 5.796.082.297.32.53.62.606.195.048 4.794 1.252 5.362 6.146.783 6.757-6.039 8.01-6.187 8.048m1.702-15.7C23.167 5.028 20.848 0 14.767 0h-.148c-4.664.062-6.969 3.265-7.5 4.856-.03.064-.26.564-.452 1.445C2.103 7.277.15 11.896.007 14.95c-.08 1.66.526 4.327 2.486 6.374C4.17 23.074 6.495 24 9.218 24l12.963-.012c.087-.015 8.712-1.56 7.743-9.933-.588-5.069-4.764-6.958-6.182-7.457"/>
    </g>
</svg>
