<svg xmlns="http://www.w3.org/2000/svg" xmlns:xlink="http://www.w3.org/1999/xlink" width="32" height="32" viewBox="0 0 32 32">
    <defs>
        <path id="a" d="M0 0h32v32H0z"/>
        <path id="c" d="M0 32h32V0H0z"/>
    </defs>
    <g fill="none" fill-rule="evenodd">
        <mask id="b" fill="#fff">
            <use xlink:href="#a"/>
        </mask>
        <path fill="#818181" d="M16 1.598C8.059 1.598 1.6 8.058 1.6 16c0 7.94 6.459 14.4 14.4 14.4 7.94 0 14.402-6.46 14.402-14.4C30.402 8.059 23.94 1.598 16 1.598M16 32C7.176 32 0 24.823 0 16 0 7.178 7.176 0 16 0c8.821 0 16 7.178 16 16 0 8.823-7.179 16-16 16" mask="url(#b)"/>
        <path fill="#818181" d="M29.044 16c0 7.202-5.84 13.043-13.044 13.043-7.204 0-13.044-5.841-13.044-13.043C2.956 8.797 8.796 2.957 16 2.957c7.204 0 13.044 5.84 13.044 13.043"/>
        <path fill="#EAEAEA" d="M18.708 15.135h-5.556l.006 1.592h3.748c-.444 1.937-1.812 3.125-3.647 3.125a4.36 4.36 0 1 1 2.963-7.555l1.231-1.06a5.977 5.977 0 1 0-4.194 10.233c3.169 0 5.458-2.42 5.458-5.718l-.009-.617z"/>
        <mask id="d" fill="#fff">
            <use xlink:href="#c"/>
        </mask>
        <path fill="#EAEAEA" d="M20.643 16.664h6.051v-1.463h-6.051z" mask="url(#d)"/>
        <path fill="#EAEAEA" d="M22.936 18.957h1.466v-6.051h-1.466z" mask="url(#d)"/>
    </g>
</svg>
