<svg xmlns="http://www.w3.org/2000/svg" xmlns:xlink="http://www.w3.org/1999/xlink" width="79" height="64" viewBox="0 0 79 64">
    <defs>
        <path id="a" d="M0 0h79v64H0z"/>
    </defs>
    <g fill="none" fill-rule="evenodd">
        <mask id="b" fill="#fff">
            <use xlink:href="#a"/>
        </mask>
        <path fill="#B20053" d="M49.035 34.443c1.777 0 3.49-.022 5.202.005 2.91.045 4.974 2.067 4.998 4.872.035 2.795-2 5.003-4.833 5.067-3.373.077-6.753.08-10.131 0-2.573-.059-4.432-1.816-4.801-4.368-.11-.752-.085-1.534-.176-2.291-.78-7.003-6.647-13.44-15.524-13.008-5.994.28-10.373 3.523-12.649 9.11-2.244 5.511-1.296 10.711 2.584 15.22 2.717 3.155 6.254 4.777 10.707 4.945-.55-.899-.948-1.547-1.333-2.198-2.124-3.64-3.28-7.57-3.356-11.789-.056-3.293 1.914-5.515 4.867-5.565 3.001-.048 5.017 2.045 5.115 5.333.228 7.717 6.527 14.043 14.223 14.224 3.615.085 7.229.077 10.84-.005 6.9-.16 13.015-5.491 14.006-12.107 1.102-7.347-2.863-14.096-9.712-16.384-1.54-.512-3.176-.75-4.745-1.112-.922-7.821-5.184-12.808-12.176-14.283-4.86-1.026-11.347 1.302-13.395 4.86 10.745 2.32 17.477 8.844 20.289 19.474zm-9.65 29.5c-5.394 0-10.795.137-16.183-.031-11.943-.355-22.15-10.45-23.117-22.379C-.87 29.643 6.36 20.144 15.13 16.531c.616-.256 1.224-.902 1.53-1.52C21.247 5.336 28.79-.027 39.576 0 50.312.031 57.75 5.447 62.35 15.01c.35.736 1.222 1.378 2.002 1.73 15.952 7.248 19.705 28.203 7.128 40.326C66.67 61.7 60.852 64.013 54.134 64c-4.918-.005-9.831 0-14.75 0v-.056z" mask="url(#b)"/>
    </g>
</svg>
