<svg xmlns="http://www.w3.org/2000/svg" width="30" height="24" viewBox="0 0 30 24">
    <g fill="none" fill-rule="evenodd">
        <path fill="#FBB03B" d="M27.693 24H2.307a.838.838 0 0 1-.826-.85.84.84 0 0 1 .826-.852h25.386c.458 0 .827.38.827.852 0 .47-.369.85-.827.85"/>
        <path fill="#4A4A4A" d="M3.76 20.149c-1.584-1.658-2.074-3.795-2.013-5.12.131-2.802 2.079-7.212 6.754-7.212l.09.001c7.524.092 7.691 7.013 7.695 7.307a.854.854 0 0 0 .852.843h4.56a.85.85 0 1 0 0-1.702h-3.786c-.301-2.222-1.807-8.059-9.301-8.15l-.115-.001c.107-.358.2-.567.222-.623.014-.036 1.307-3.729 5.926-3.789 5.923-.134 7.52 5.554 7.582 5.795a.86.86 0 0 0 .619.606c.194.05 4.782 1.252 5.346 6.146.37 3.203-.967 5.16-2.49 6.346h2.41c1.252-1.487 2.114-3.58 1.772-6.54-.585-5.07-4.75-6.958-6.164-7.458C23.145 5.028 20.831 0 14.769 0l-.148.001C9.969.062 7.67 3.265 7.144 4.856c-.032.064-.26.564-.454 1.445C2.136 7.28.19 11.895.048 14.95c-.07 1.475.458 3.724 1.932 5.647h2.31c-.177-.15-.368-.276-.53-.447"/>
    </g>
</svg>
