<svg xmlns="http://www.w3.org/2000/svg" width="30" height="26" viewBox="0 0 30 26">
    <g fill="none" fill-rule="evenodd">
        <path fill="#4A4A4A" d="M8.088 6.461v.002-.002z"/>
        <path fill="#ED1E79" d="M7.7 24.078a1.649 1.649 0 0 1-1.656-1.61c0-.463.205-.878.527-1.173a1.67 1.67 0 0 1 1.129-.439c.628 0 1.168.348 1.448.852.126.228.204.484.204.76 0 .328-.102.633-.276.888a1.663 1.663 0 0 1-1.376.722m2.73-2.37a2.837 2.837 0 0 0-2.73-2.02c-.924 0-1.738.435-2.26 1.099a2.71 2.71 0 0 0-.58 1.53c-.003.051-.016.1-.016.151 0 1.532 1.28 2.779 2.856 2.779a2.841 2.841 0 0 0 2.69-1.89c.097-.28.162-.577.162-.889 0-.265-.05-.517-.122-.76M22.304 24.078a1.666 1.666 0 0 1-1.378-.722 1.565 1.565 0 0 1-.278-.888c0-.276.078-.532.205-.76a1.664 1.664 0 0 1 2.576-.414c.322.295.527.71.527 1.174a1.644 1.644 0 0 1-1.652 1.61m2.837-1.76a2.72 2.72 0 0 0-.58-1.531 2.866 2.866 0 0 0-2.257-1.1 2.84 2.84 0 0 0-2.734 2.021 2.68 2.68 0 0 0-.122.76c0 .312.066.608.164.889a2.842 2.842 0 0 0 2.692 1.89c1.572 0 2.852-1.247 2.852-2.779 0-.052-.013-.1-.015-.15M8.088 6.461v-.008c-.002.001-.003.004-.004.006l.004.002zM7.938 6.638V.886a.741.741 0 0 0-.75-.73H1.992a.74.74 0 0 0-.75.73c0 .402.336.73.75.73h4.446v5.022c0 .403.336.73.75.73.413 0 .75-.328.75-.73"/>
        <path fill="#4A4A4A" d="M18.135 22.247c.011-.183.039-.362.073-.539h-6.416c.054.247.095.497.095.76 0 .308-.046.604-.117.89l3.23.003 3.218-.003a3.893 3.893 0 0 1-.105-.89c0-.076.019-.146.022-.22M29.883 13.68c-.587-4.937-4.75-6.778-6.165-7.264C23.152 4.907 20.886.128 15 .001c-2.299.05-4.184.894-5.492 1.891v2.23c1.112-1.214 2.955-2.4 5.492-2.466 3.782.098 5.715 2.496 6.592 4.134.13.243.238.47.325.67l-.005.003a20.333 20.333 0 0 1 .552 1.33c.232.05.373.084.373.084.003 0 .005.004.008.005.046.012.345.09.772.26 1.377.55 4.144 2.09 4.575 5.727.373 3.142-.984 5.061-2.52 6.214.283.38.506.807.642 1.27.023.08.037.163.057.243 2.058-1.391 4-3.807 3.513-7.917M1.808 13.869c.366-3.08 2.529-4.725 3.98-5.47-.011.001-.022.004-.034.004a.888.888 0 0 1-.9-.876v-.495C3.066 8 .55 10.025.117 13.68c-.487 4.108 1.453 6.522 3.51 7.915a3.985 3.985 0 0 1 .701-1.51c-1.535-1.154-2.892-3.072-2.52-6.215"/>
    </g>
</svg>
