<svg xmlns="http://www.w3.org/2000/svg" xmlns:xlink="http://www.w3.org/1999/xlink" width="32" height="32" viewBox="0 0 32 32">
    <defs>
        <path id="a" d="M16 0C7.168 0 0 7.168 0 16s7.168 16 16 16 16-7.168 16-16S24.832 0 16 0zm0 4.8c2.656 0 4.8 2.144 4.8 4.8 0 2.656-2.144 4.8-4.8 4.8a4.794 4.794 0 0 1-4.8-4.8c0-2.656 2.144-4.8 4.8-4.8zm0 22.72c-4 0-7.536-2.048-9.6-5.152.048-3.184 6.4-4.928 9.6-4.928 3.184 0 9.552 1.744 9.6 4.928A11.52 11.52 0 0 1 16 27.52z"/>
    </defs>
    <use fill="#818181" fill-rule="evenodd" xlink:href="#a"/>
</svg>
