<svg xmlns="http://www.w3.org/2000/svg" xmlns:xlink="http://www.w3.org/1999/xlink" width="32" height="32" viewBox="0 0 32 32">
    <defs>
        <path id="a" d="M0 .031h32V32H0z"/>
        <path id="c" d="M0 32.97h32V1H0z"/>
    </defs>
    <g fill="none" fill-rule="evenodd" transform="translate(0 -1)">
        <g transform="translate(0 .97)">
            <mask id="b" fill="#fff">
                <use xlink:href="#a"/>
            </mask>
            <path fill="#828282" d="M15.999 1.627c-7.941 0-14.401 6.455-14.401 14.388s6.46 14.386 14.4 14.386c7.943 0 14.4-6.453 14.4-14.386 0-7.934-6.457-14.389-14.4-14.389m0 30.375C7.177 32 0 24.83 0 16.016S7.176.03 15.999.03s16 7.17 16 15.984-7.177 15.986-16 15.986" mask="url(#b)"/>
        </g>
        <path fill="#828282" d="M29.041 16.985c0 7.195-5.838 13.03-13.043 13.03-7.201 0-13.04-5.835-13.04-13.03 0-7.196 5.838-13.03 13.04-13.03 7.205 0 13.043 5.834 13.043 13.03"/>
        <mask id="d" fill="#fff">
            <use xlink:href="#c"/>
        </mask>
        <path fill="#EBEBEB" d="M9.823 23.506h2.845V14.32H9.823zM11.232 13.117c.93 0 1.681-.76 1.681-1.697 0-.935-.751-1.693-1.681-1.693s-1.684.758-1.684 1.693a1.69 1.69 0 0 0 1.684 1.697M17.218 18.684c0-1.29.596-2.06 1.734-2.06 1.046 0 1.548.74 1.548 2.06v4.822h2.834v-5.815c0-2.46-1.396-3.65-3.345-3.65-1.95 0-2.77 1.517-2.77 1.517v-1.237h-2.732v9.185h2.731v-4.822z" mask="url(#d)"/>
    </g>
</svg>
