<svg xmlns="http://www.w3.org/2000/svg" width="30" height="27" viewBox="0 0 30 27">
    <g fill="none" fill-rule="evenodd">
        <path fill="#93278F" d="M4.436 9.722L.793 8.237A.881.881 0 0 1 .306 7.08a.906.906 0 0 1 1.176-.48l3.642 1.486a.88.88 0 0 1 .488 1.157.905.905 0 0 1-1.176.48M6.73 7.275a.905.905 0 0 1-.637-.259L3.306 4.272a.875.875 0 0 1 0-1.252.91.91 0 0 1 1.272 0l2.789 2.743a.877.877 0 0 1 0 1.253.905.905 0 0 1-.637.26M9.629 5.289a.904.904 0 0 1-1.176-.48l-1.51-3.584A.882.882 0 0 1 7.433.067a.906.906 0 0 1 1.176.48l1.508 3.585a.88.88 0 0 1-.487 1.157"/>
        <path fill="#4A4A4A" d="M29.836 14.082c-.583-4.973-4.734-6.826-6.144-7.317C23.12 5.227 20.814.293 14.768.293h-.147c-1.62.022-2.948.424-4.02.999l.648 1.54c.851-.49 1.961-.85 3.395-.868h.123c5.806 0 7.375 5.451 7.436 5.684.082.292.32.52.618.594.194.048 4.764 1.229 5.328 6.031.162 1.372.013 2.607-.44 3.673-.026.06-.032.13-.043.197-.006.046-.026.089-.026.134v5.855l-5.35-1.914c-.046-.015-.09-.01-.134-.019-.054-.01-.101-.032-.158-.032H9.252c-1.79 0-3.299-.459-4.528-1.335a6.631 6.631 0 0 1-.93-.773 6.72 6.72 0 0 1-.536-.623c-1.156-1.51-1.525-3.26-1.47-4.4.008-.183.027-.375.052-.57a8.684 8.684 0 0 1 1.302-3.538l-1.581-.645a10.56 10.56 0 0 0-1.293 3.353c-.09.46-.154.908-.174 1.322-.006.123 0 .261.003.394.026 1.636.668 4.004 2.47 5.86 1.665 1.717 3.978 2.625 6.685 2.625h12.597l6.349 2.271a.855.855 0 0 0 .777-.1.828.828 0 0 0 .362-.684v-6.92c.51-1.289.686-2.738.499-4.322"/>
    </g>
</svg>
