<svg xmlns="http://www.w3.org/2000/svg" xmlns:xlink="http://www.w3.org/1999/xlink" width="203" height="32" viewBox="0 0 203 32">
    <defs>
        <path id="a" d="M0 .204h30.697V24.97H0z"/>
        <path id="c" d="M0 31.796h202.732V.582H0z"/>
    </defs>
    <g fill="none" fill-rule="evenodd">
        <g transform="translate(0 .378)">
            <mask id="b" fill="#fff">
                <use xlink:href="#a"/>
            </mask>
            <path fill="#B10053" d="M19.054 13.532c.69 0 1.356-.008 2.02.002 1.131.017 1.934.8 1.943 1.885.013 1.082-.777 1.935-1.879 1.962-1.31.029-2.624.03-3.936 0-1-.024-1.722-.704-1.865-1.691-.042-.292-.033-.594-.068-.887-.304-2.71-2.583-5.2-6.033-5.034-2.328.11-4.03 1.363-4.915 3.525-.872 2.133-.503 4.145 1.005 5.89 1.055 1.221 2.43 1.849 4.16 1.914-.214-.348-.369-.598-.519-.85-.825-1.409-1.273-2.93-1.304-4.563-.02-1.274.744-2.134 1.892-2.153 1.166-.019 1.948.791 1.987 2.064.089 2.985 2.537 5.434 5.527 5.504 1.404.033 2.81.03 4.212-.002 2.681-.062 5.058-2.125 5.442-4.684.428-2.844-1.112-5.456-3.773-6.34-.599-.2-1.234-.291-1.844-.431-.358-3.027-2.014-4.957-4.731-5.527-1.889-.398-4.41.503-5.205 1.88 4.175.898 6.792 3.423 7.884 7.536zm-3.75 11.416c-2.096 0-4.195.052-6.288-.013-4.641-.137-8.608-4.044-8.983-8.66A9.608 9.608 0 0 1 5.88 6.6c.239-.098.475-.348.593-.588C8.256 2.27 11.187.193 15.378.204c4.173.012 7.062 2.108 8.85 5.808.135.285.474.535.777.67 6.2 2.805 7.657 10.914 2.77 15.604-1.87 1.794-4.129 2.689-6.74 2.683-1.91-.002-3.82 0-5.731 0v-.02z" mask="url(#b)"/>
        </g>
        <path fill="#094D7D" d="M48.57 18.941c0-.901-.318-1.593-.954-2.076-.636-.482-1.782-.991-3.437-1.527-1.654-.536-2.964-1.064-3.93-1.583-2.63-1.421-3.944-3.336-3.944-5.743 0-1.252.352-2.368 1.057-3.35.705-.98 1.718-1.746 3.04-2.298 1.32-.552 2.801-.827 4.446-.827 1.654 0 3.128.3 4.422.899 1.294.599 2.3 1.445 3.015 2.537.716 1.093 1.074 2.334 1.074 3.723h-4.773c0-1.06-.334-1.886-1.002-2.474-.668-.589-1.607-.883-2.816-.883-1.167 0-2.074.247-2.72.74-.647.493-.97 1.143-.97 1.948 0 .754.378 1.385 1.137 1.894.758.509 1.874.986 3.349 1.431 2.714.817 4.693 1.83 5.934 3.04 1.24 1.208 1.86 2.715 1.86 4.517 0 2.005-.757 3.577-2.274 4.718-1.517 1.14-3.558 1.71-6.125 1.71-1.782 0-3.405-.326-4.868-.979-1.464-.652-2.58-1.545-3.349-2.68-.77-1.135-1.153-2.45-1.153-3.946h4.788c0 2.556 1.528 3.834 4.582 3.834 1.135 0 2.02-.23 2.657-.692.636-.461.954-1.106.954-1.933M66.595 23.268c-1.135 1.38-2.704 2.069-4.709 2.069-1.845 0-3.253-.53-4.224-1.591-.97-1.06-1.466-2.615-1.487-4.661V7.805h4.598v11.134c0 1.794.816 2.691 2.45 2.691 1.559 0 2.63-.542 3.214-1.625v-12.2h4.613v17.214h-4.327l-.128-1.75zM78.83 7.805l.143 1.925c1.219-1.496 2.869-2.243 4.947-2.243 2.217 0 3.739.875 4.566 2.625 1.209-1.75 2.933-2.625 5.17-2.625 1.868 0 3.256.544 4.169 1.63.912 1.088 1.368 2.724 1.368 4.908v10.993H94.58V14.041c0-.975-.19-1.689-.573-2.14-.381-.45-1.055-.676-2.02-.676-1.378 0-2.333.658-2.863 1.973l.015 11.82h-4.597V14.057c0-.997-.197-1.718-.59-2.164-.391-.445-1.06-.668-2.003-.668-1.305 0-2.25.541-2.832 1.623v12.17h-4.598V7.805h4.312zM108.897 21.82c.679 0 1.305-.15 1.878-.452.572-.303.996-.709 1.272-1.218v-2.959h-1.718c-2.3 0-3.526.796-3.674 2.387l-.017.27c0 .573.202 1.045.605 1.416.404.371.955.557 1.654.557zm3.803 3.198c-.213-.413-.366-.928-.462-1.543-1.113 1.241-2.56 1.862-4.343 1.862-1.686 0-3.084-.488-4.192-1.464-1.108-.975-1.662-2.206-1.662-3.69 0-1.825.676-3.225 2.028-4.2 1.352-.977 3.307-1.47 5.862-1.48h2.116v-.987c0-.795-.204-1.431-.612-1.91-.408-.476-1.052-.715-1.933-.715-.774 0-1.382.186-1.822.557-.44.371-.66.88-.66 1.527h-4.598c0-.997.308-1.92.923-2.768.615-.848 1.486-1.514 2.609-1.997 1.124-.482 2.387-.724 3.787-.724 2.121 0 3.804.533 5.05 1.6 1.247 1.065 1.87 2.564 1.87 4.494v7.461c.01 1.634.239 2.87.684 3.707v.27H112.7zM122.882 16.603c0 1.95.403 3.478 1.209 4.581.805 1.103 1.919 1.655 3.34 1.655 1.867 0 3.23-.838 4.09-2.514v-7.906c-.882-1.623-2.234-2.435-4.058-2.435-1.442 0-2.567.557-3.372 1.67-.806 1.114-1.21 2.764-1.21 4.949zm-2.944-.334c0-2.641.627-4.766 1.878-6.372 1.25-1.607 2.89-2.41 4.915-2.41 2.015 0 3.612.69 4.79 2.068V.582h2.942V25.02h-2.704l-.143-1.846c-1.178 1.442-2.816 2.164-4.917 2.164-1.993 0-3.619-.817-4.875-2.45-1.258-1.633-1.886-3.765-1.886-6.396v-.222z"/>
        <mask id="d" fill="#fff">
            <use xlink:href="#c"/>
        </mask>
        <path fill="#094D7D" d="M138.959 25.019h2.943V7.805h-2.943v17.214zm-.239-21.78c0-.477.145-.88.438-1.21.29-.328.723-.492 1.296-.492.573 0 1.007.164 1.305.493.297.329.446.732.446 1.209 0 .477-.15.875-.446 1.193-.298.318-.732.477-1.305.477s-1.006-.159-1.296-.477c-.293-.318-.438-.716-.438-1.193zM148.544 16.603c0 1.94.398 3.465 1.193 4.573.796 1.11 1.91 1.663 3.341 1.663 1.856 0 3.218-.843 4.089-2.53V12.45c-.902-1.644-2.255-2.466-4.057-2.466-1.432 0-2.551.557-3.357 1.67-.807 1.114-1.209 2.764-1.209 4.949m-2.96-.334c0-2.684.621-4.818 1.862-6.404 1.241-1.585 2.884-2.378 4.932-2.378 2.1 0 3.739.742 4.916 2.227l.143-1.91h2.689v16.8c0 2.228-.66 3.983-1.98 5.267-1.322 1.283-3.095 1.925-5.323 1.925a8.856 8.856 0 0 1-3.642-.796c-1.19-.53-2.096-1.257-2.721-2.18l1.527-1.765c1.262 1.56 2.805 2.338 4.63 2.338 1.432 0 2.548-.402 3.349-1.209.8-.806 1.2-1.94 1.2-3.404V23.3c-1.176 1.358-2.783 2.037-4.82 2.037-2.016 0-3.646-.812-4.892-2.435-1.247-1.622-1.87-3.834-1.87-6.633M164.493 25.019h2.943V7.805h-2.943v17.214zm-.239-21.78c0-.477.146-.88.438-1.21.292-.328.724-.492 1.296-.492.573 0 1.008.164 1.305.493.296.329.445.732.445 1.209 0 .477-.149.875-.445 1.193-.297.318-.732.477-1.305.477-.572 0-1.004-.159-1.296-.477-.292-.318-.438-.716-.438-1.193zM175.812 3.637v4.168h3.214v2.275h-3.214v10.688c0 .69.143 1.208.43 1.553.286.346.773.518 1.463.518.34 0 .806-.063 1.4-.19v2.371a8.564 8.564 0 0 1-2.259.317c-1.314 0-2.307-.398-2.975-1.194-.668-.795-1.002-1.925-1.002-3.388V10.08h-3.134V7.805h3.134V3.637h2.943zM187.88 22.775c.923 0 1.798-.238 2.626-.715.827-.478 1.426-1.098 1.797-1.862v-3.532h-2.307c-3.607 0-5.409 1.056-5.409 3.166 0 .923.307 1.644.923 2.164.614.52 1.405.78 2.37.78zm4.885 2.243c-.17-.339-.309-.944-.414-1.813-1.368 1.421-3.003 2.131-4.9 2.131-1.698 0-3.09-.479-4.176-1.439-1.088-.96-1.631-2.177-1.631-3.651 0-1.792.68-3.185 2.044-4.176 1.363-.992 3.28-1.488 5.752-1.488h2.863V13.23c0-1.029-.308-1.848-.922-2.458-.617-.61-1.524-.915-2.721-.915-1.05 0-1.931.265-2.64.796-.712.53-1.067 1.172-1.067 1.925h-2.959c0-.86.304-1.69.915-2.49.609-.801 1.436-1.435 2.482-1.901 1.044-.467 2.191-.7 3.444-.7 1.983 0 3.536.496 4.661 1.487 1.124.992 1.707 2.357 1.75 4.097v7.922c0 1.581.202 2.838.605 3.77v.255h-3.086zM199.788 25.019h2.944V.582h-2.944z" mask="url(#d)"/>
        <path fill="#B10053" d="M110.587.624h4.922l-4.328 4.844h-3.672z" mask="url(#d)"/>
    </g>
</svg>
