<svg xmlns="http://www.w3.org/2000/svg" width="30" height="24" viewBox="0 0 30 24">
    <g fill="none" fill-rule="evenodd">
        <path fill="#4A4A4A" d="M22.02 22.294H7.979c-.148-.037-6.95-1.29-6.172-8.048.432-3.735 3.201-5.317 4.577-5.88a6.12 6.12 0 0 1 .77-.266c.004-.001.006-.005.01-.005 0 0 .14-.036.372-.088a20.883 20.883 0 0 1 .552-1.364l-.005-.004c.087-.205.194-.437.325-.687.878-1.682 2.81-4.144 6.591-4.244 3.782.1 5.714 2.562 6.592 4.244.13.25.238.482.324.687l-.005.004c.069.152.143.323.216.5.116.277.234.573.336.864.233.052.373.088.373.088.004 0 .005.004.008.005.046.01.345.091.773.267 1.377.564 4.143 2.146 4.575 5.879.779 6.757-6.024 8.01-6.171 8.048m7.863-8.242c-.587-5.07-4.75-6.958-6.165-7.457-.566-1.55-2.833-6.457-8.719-6.586-5.885.13-8.153 5.037-8.719 6.586C4.866 7.094.702 8.983.116 14.052c-.965 8.373 7.635 9.918 7.721 9.933L15 23.99l7.161-.006c.087-.015 8.689-1.56 7.723-9.933"/>
        <path fill="#22B573" d="M17.847 13.575a2.314 2.314 0 0 0-.527-.791 3.14 3.14 0 0 0-.821-.578 10.493 10.493 0 0 0-1.227-.489c-.46-.158-.812-.311-1.048-.457-.186-.115-.32-.237-.388-.357-.037-.065-.1-.223-.1-.553 0-.334.107-.585.335-.789.247-.22.584-.326 1.028-.326.441 0 .772.123 1.01.377.248.267.369.626.369 1.095a.6.6 0 0 0 .6.6h.296a.6.6 0 0 0 .6-.6c0-.86-.237-1.56-.702-2.083-.362-.407-.834-.675-1.408-.8v-.502a.6.6 0 0 0-.6-.6h-.303a.6.6 0 0 0-.6.6v.493a2.715 2.715 0 0 0-1.34.667c-.518.477-.78 1.11-.78 1.88 0 .462.09.87.268 1.21.176.342.45.641.808.89.327.225.8.443 1.445.667.545.188.955.365 1.218.525.208.127.36.263.432.387.073.127.11.303.11.527a.965.965 0 0 1-.358.768c-.263.231-.598.344-1.027.344-.548 0-.957-.129-1.25-.393-.275-.25-.41-.6-.41-1.073a.6.6 0 0 0-.6-.6h-.295a.6.6 0 0 0-.6.6c0 .886.276 1.604.82 2.132.416.404.96.663 1.62.773v.486a.6.6 0 0 0 .6.6h.302a.6.6 0 0 0 .6-.6v-.508c.53-.114.978-.344 1.339-.687.5-.476.755-1.099.755-1.85 0-.37-.058-.702-.171-.985"/>
    </g>
</svg>
